<svg id="Capa_1" enable-background="new 0 0 512 512" height="512" viewBox="0 0 512 512" width="512" xmlns="http://www.w3.org/2000/svg"><g id="XMLID_28_"><g id="XMLID_745_"><circle id="XMLID_574_" cx="255.873" cy="466.498" fill="#ddb9a3" r="35.5"/></g><g id="XMLID_744_"><path id="XMLID_573_" d="m242 382.05h-192v80h170z" fill="#c68a65"/></g><g id="XMLID_741_"><circle id="XMLID_570_" cx="50" cy="422.05" fill="#ddb9a3" r="40"/></g><g id="XMLID_748_"><path id="XMLID_569_" d="m270 382.05h192v80h-170z" fill="#c68a65"/></g><g id="XMLID_746_"><circle id="XMLID_555_" cx="462" cy="422.05" fill="#ddb9a3" r="40"/></g><g id="XMLID_751_"><path id="XMLID_554_" d="m296.862 389.117c0-22.497-15.763-51.972-40.735-69.765 0 22.162-40.735 29.03-40.735 69.765 0 22.497 18.238 40.735 40.735 40.735s40.735-18.237 40.735-40.735z" fill="#ff9171"/></g><g id="XMLID_750_"><path id="XMLID_553_" d="m397.542 122.788c-3.547 27.625-17.74 51.882-38.286 68.653 0-80.529-47.769-149.952-116.482-181.439h-.006c9.059 13.956 14.32 30.61 14.32 48.488 0 34.624-19.733 64.643-48.568 79.414-11.916 5.805-22.3 14.146-30.517 24.381-8.863-36.391-28.309-68.737-54.967-93.316l-.014.016c0 111.177-41.262 113.586-41.262 184.746 0 96.098 78.27 176.122 174.368 176.122s174-77.902 174-174c-.001-49.161-9.58-89.583-32.586-133.065z" fill="#ff764e"/></g><g id="XMLID_749_"><path id="XMLID_552_" d="m176.012 256.518c2.002 15.594 10.014 29.287 21.612 38.754 0-45.457 26.965-84.646 65.753-102.42h.003c-5.114 7.878-8.083 17.279-8.083 27.371 0 19.545 11.139 36.49 27.416 44.828 6.727 3.277 12.588 7.986 17.227 13.763 5.003-20.542 15.98-38.801 31.029-52.676l.008.009c0 62.758 23.292 63.519 23.292 103.688l-.208 1.797c0 54.246-43.975 98.221-98.221 98.221s-98.221-43.975-98.221-98.221c-.001-27.751 5.407-50.568 18.393-75.114z" fill="#ff9171"/></g><g id="XMLID_752_"><path id="XMLID_543_" d="m296.862 389.117c0-22.497-15.763-51.972-40.735-69.765 0 22.162-40.735 29.03-40.735 69.765 0 22.497 18.238 40.735 40.735 40.735s40.735-18.237 40.735-40.735z" fill="#ffcd69"/></g><g id="XMLID_575_"><path id="XMLID_691_" d="m462 372.049h-63.316c25.891-31.705 41.443-72.167 41.443-116.197 0-51.149-10.407-93.63-33.745-137.741-2.038-3.853-6.335-5.943-10.624-5.163-4.288.778-7.578 4.243-8.134 8.565-2.215 17.249-9.024 33.344-19.625 46.843-1.742-15.891-5.291-31.482-10.612-46.571-1.837-5.209-7.549-7.941-12.756-6.105-5.209 1.836-7.942 7.548-6.105 12.756 7.121 20.193 10.732 41.391 10.732 63.003 0 3.862 2.224 7.378 5.713 9.034 3.489 1.657 7.62 1.154 10.61-1.288 15.643-12.768 27.497-29.043 34.727-47.321 13.768 32.791 19.82 65.183 19.82 103.986 0 58.392-30.68 109.745-76.762 138.81 13.524-18.635 20.833-40.92 20.833-64.228 0-20.001-5.372-31.929-10.566-43.465-6.223-13.817-12.656-28.105-12.656-60.822 0-2.357-.841-4.647-2.358-6.451-1.759-2.088-4.295-3.367-7.02-3.539-2.737-.176-5.402.778-7.408 2.628-12.762 11.767-22.605 26.096-28.975 42.04-2.531-1.765-5.209-3.339-8.023-4.716-13.509-6.956-21.895-20.699-21.895-35.887 0-7.822 2.237-15.404 6.471-21.926 1.996-3.075 2.148-6.996.398-10.217-1.75-3.222-5.123-5.227-8.789-5.227-1.438 0-2.858.31-4.166.909-35.694 16.356-61.023 48.776-68.953 86.31-2.19-4.644-3.661-9.636-4.327-14.828-.556-4.322-3.846-7.788-8.134-8.565-4.293-.775-8.586 1.312-10.624 5.163-13.523 25.56-19.554 50.167-19.554 79.79 0 22.837 7.117 44.04 19.24 61.521-45.163-29.639-75.1-81.061-75.1-139.422 0-29.474 7.563-46.219 16.321-65.609 10.101-22.365 21.367-47.313 24.243-94.916 17.23 20.669 29.521 44.999 35.963 71.445.901 3.701 3.827 6.568 7.545 7.396 3.724.829 7.584-.531 9.969-3.501 7.395-9.21 16.513-16.495 27.099-21.652.061-.029.12-.06.181-.09 33.313-17.065 54.009-50.905 54.009-88.314 0-8.664-1.119-17.211-3.302-25.457 10.45 6.875 20.219 14.793 29.21 23.686 3.927 3.883 10.26 3.85 14.142-.078 3.884-3.927 3.85-10.258-.077-14.142-17.55-17.357-37.777-31.35-60.121-41.588-1.308-.599-2.734-.909-4.172-.909-3.666 0-7.038 2.006-8.788 5.227-1.749 3.222-1.596 7.143.4 10.217 8.314 12.807 12.708 27.691 12.708 43.043 0 29.836-16.49 56.83-43.044 70.47-7.735 3.778-14.845 8.465-21.26 14.006-10.564-31.073-28.663-58.938-52.972-81.35-2.002-1.846-4.687-2.79-7.396-2.621-2.719.167-5.259 1.443-7.021 3.52-1.533 1.807-2.375 4.1-2.375 6.47 0 59.61-12.309 86.861-23.168 110.905-9.305 20.602-18.094 40.061-18.094 73.841 0 43.492 14.985 84.899 42.499 118.318h-64.259c-27.57 0-50 22.43-50 50s22.43 50 50 50h160.724c2.749 22.478 21.941 39.948 45.149 39.948s42.401-17.47 45.149-39.948h160.978c27.57 0 50-22.43 50-50 0-27.566-22.43-49.996-50-49.996zm-249.262 80h-122.765c6.292-8.363 10.027-18.753 10.027-30 0-11.248-3.735-21.637-10.027-30h43.323c25.267 22.984 55.658 38.216 88.354 44.513-3.921 4.478-6.977 9.726-8.912 15.487zm43.488-32.204c-.13.001.131.005 0 .005-16.903-.052-30.834-13.817-30.834-30.732 0-19.01 10.521-28.545 21.661-38.639 4.942-4.479 9.973-9.037 13.626-14.374 17.232 16.609 26.184 38.078 26.184 53.013-.001 16.848-13.826 30.568-30.637 30.727zm33.969 16.833c34.059-6.403 64.842-22.21 89.524-44.628h42.308c-6.292 8.363-10.027 18.752-10.027 30 0 11.247 3.735 21.637 10.027 30h-123.02c-1.918-5.713-4.939-10.92-8.812-15.372zm-115.248-152.774c4.197 7.212 9.707 13.691 16.354 19.116 2.991 2.441 7.123 2.945 10.61 1.287 3.489-1.656 5.713-5.172 5.713-9.034 0-31.196 14.292-60.335 37.841-79.568-.112 1.499-.168 3.006-.168 4.519 0 22.759 12.59 43.347 32.857 53.729.059.03.119.06.179.09 5.395 2.628 10.04 6.34 13.809 11.033 2.385 2.97 6.246 4.328 9.969 3.501 3.718-.827 6.644-3.694 7.545-7.396 2.586-10.617 6.919-20.603 12.796-29.615 2.607 20.663 8.204 33.089 12.944 43.617 4.918 10.921 8.803 19.547 8.803 35.252 0 31.24-15.915 58.783-39.968 74.778 1.698-5.061 2.632-10.469 2.632-16.094 0-27.022-18.477-59.06-44.933-77.909-3.048-2.172-7.057-2.459-10.384-.745-3.328 1.715-5.419 5.146-5.419 8.889 0 4.734-4.752 9.28-12.504 16.306-11.914 10.796-28.231 25.583-28.231 53.46 0 5.876 1.015 11.517 2.861 16.77-24.423-15.706-40.633-43.123-40.633-74.256-.001-17.618 2.27-32.822 7.327-47.73zm-154.947 138.145c0-16.542 13.458-30 30-30s30 13.458 30 30-13.458 30-30 30-30-13.458-30-30zm235.873 69.949c-14.061 0-25.5-11.44-25.5-25.5 0-14.061 11.439-25.5 25.5-25.5s25.5 11.439 25.5 25.5c0 14.06-11.439 25.5-25.5 25.5zm206.127-39.949c-16.542 0-30-13.458-30-30s13.458-30 30-30 30 13.458 30 30-13.458 30-30 30z"/><path id="XMLID_757_" d="m328.263 94.637c2.63 0 5.21-1.07 7.08-2.93 1.86-1.86 2.93-4.44 2.93-7.07s-1.069-5.21-2.93-7.07c-1.87-1.86-4.439-2.93-7.08-2.93-2.63 0-5.21 1.07-7.07 2.93-1.859 1.86-2.92 4.44-2.92 7.07s1.061 5.21 2.92 7.07c1.86 1.86 4.44 2.93 7.07 2.93z"/></g></g></svg>