<?xml version="1.0" encoding="iso-8859-1"?>
<!-- Generator: Adobe Illustrator 19.0.0, SVG Export Plug-In . SVG Version: 6.00 Build 0)  -->
<svg version="1.1" id="Capa_1" xmlns="http://www.w3.org/2000/svg" xmlns:xlink="http://www.w3.org/1999/xlink" x="0px" y="0px"
	 viewBox="0 0 512 512" style="enable-background:new 0 0 512 512;" xml:space="preserve">
<rect x="10" y="356" style="fill:#FF9458;" width="472" height="40"/>
<path style="fill:#4E4C75;" d="M502,216v60c0,11.05-8.95,20-20,20s-20-8.95-20-20v-60c0-11.05,8.95-20,20-20
	C493.04,196,502,204.96,502,216z"/>
<path style="fill:#E8E8E8;" d="M170,136c0,20.994,0,193.29,0,220h292c0-65.678,0-148.013,0-220H170z"/>
<path style="fill:#FF916C;" d="M462,96v40c-11.71,0-383.89,0-392,0v-20c0-22.09,17.91-40,40-40h332C453.05,76,462,84.95,462,96z"/>
<path style="fill:#4E4C75;" d="M442,386c0,27.451-22.253,50-50,50c-27.762,0-50-22.558-50-50c0-27.54,22.338-50,50-50
	C419.652,336,442,358.448,442,386z"/>
<path style="fill:#5ED3EB;" d="M342,276V176h80v100C412.321,276,351.743,276,342,276z"/>
<path style="fill:#4E4C75;" d="M210,176h92v180h-92C210,318.049,210,213.951,210,176z"/>
<path style="fill:#E8E8E8;" d="M70,276c-33.14,0-60,26.86-60,60v20h160v-80H70z"/>
<path style="fill:#5ED3EB;" d="M170,216v60H70l10.35-51.77c0.57-2.83,1.33-5.58,2.27-8.23H170z"/>
<path style="fill:#E8E8E8;" d="M170,176v40H82.62c8.35-23.68,30.85-40,56.57-40H170z"/>
<path style="fill:#4E4C75;" d="M150,386c0,27.451-22.253,50-50,50c-27.762,0-50-22.558-50-50c0-27.54,22.338-50,50-50
	C127.652,336,150,358.448,150,386z"/>
<path d="M382,226c5.52,0,10-4.48,10-10s-4.48-10-10-10s-10,4.48-10,10S376.48,226,382,226z"/>
<path d="M0,396c0,5.522,4.477,10,10,10h33.435c8.351,23.6,30.954,40,56.565,40c25.622,0,48.234-16.414,56.57-40h178.866
	c8.351,23.6,30.954,40,56.565,40c25.622,0,48.234-16.414,56.57-40H482c5.523,0,10-4.478,10-10v-40c0-5.522-4.477-10-10-10h-10
	v-41.72c3.13,1.11,6.494,1.72,10,1.72c16.542,0,30-13.458,30-30v-60c0-16.575-13.424-30-30-30c-3.506,0-6.87,0.61-10,1.72
	c0-12.998,0-78.754,0-91.72c0-16.542-13.458-30-30-30H110c-27.57,0-50,22.43-50,50v20c0,5.522,4.477,10,10,10h90v20h-20.81
	c-32.903,0-61.966,23.111-68.646,56.27l-8.845,44.24C27.002,270.63,0,300.212,0,336C0,345.1,0,380.228,0,396z M20,386
	c0-6.973,0-12.964,0-20.1h23.417C41.168,372.254,40,379.084,40,386H20z M100,426c-21.77,0-40-17.698-40-40c0-21.626,17.416-40,40-40
	c22.576,0,40,18.382,40,40C140,408.357,121.731,426,100,426z M160,386c0-6.916-1.168-13.746-3.417-20.1
	c40.311,0,135.848,0,178.833,0C333.168,372.254,332,379.084,332,386H160z M90.153,226.204c0.014-0.068,0.031-0.136,0.045-0.204H160
	v40H82.197L90.153,226.204z M292,346h-72v-80h10c5.523,0,10-4.478,10-10s-4.477-10-10-10h-10v-60h72V346z M392,426
	c-21.77,0-40-17.698-40-40c0-21.626,17.416-40,40-40c22.576,0,40,18.382,40,40C432,408.357,413.731,426,392,426z M472,386h-20
	c0-6.916-1.168-13.646-3.417-20H472V386z M482,206c5.522,0,10,4.479,10,10v60c0,5.514-4.486,10-10,10s-10-4.486-10-10v-60
	C472,210.486,476.486,206,482,206z M80,116c0-16.542,13.458-30,30-30h332c5.514,0,10,4.486,10,10v30H80V116z M452,146
	c0,39.117,0,157.906,0,200h-15.315c-11.371-12.76-27.376-20-44.685-20c-17.312,0-33.32,7.243-44.686,20H312V176
	c0-5.522-4.477-10-10-10h-92c-5.523,0-10,4.478-10,10v170h-20c0-58.941,0-166.524,0-200H452z M139.19,186H160v20H99.192
	C108.466,193.656,123.191,186,139.19,186z M69.981,286c0.01,0,0.02,0.001,0.03,0.001c0.015,0,0.03-0.002,0.045-0.002H160v60h-15.315
	c-11.371-12.76-27.376-20-44.685-20c-17.312,0-33.32,7.243-44.686,20H20v-10C20,308.436,42.419,286.011,69.981,286z"/>
<path d="M342,286h80c5.523,0,10-4.478,10-10V176c0-5.522-4.477-10-10-10h-80c-5.523,0-10,4.478-10,10v100
	C332,281.522,336.477,286,342,286z M352,186h60v80h-20v-10c0-5.522-4.477-10-10-10s-10,4.478-10,10v10h-20V186z"/>
<path d="M100,366c-11.028,0-20,8.972-20,20s8.972,20,20,20s20-8.972,20-20S111.028,366,100,366z"/>
<path d="M392,366c-11.028,0-20,8.972-20,20s8.972,20,20,20s20-8.972,20-20S403.028,366,392,366z"/>
<g>
</g>
<g>
</g>
<g>
</g>
<g>
</g>
<g>
</g>
<g>
</g>
<g>
</g>
<g>
</g>
<g>
</g>
<g>
</g>
<g>
</g>
<g>
</g>
<g>
</g>
<g>
</g>
<g>
</g>
</svg>
